<?xml version="1.0" encoding="utf-8"?>
<!-- Generator: Adobe Illustrator 19.2.1, SVG Export Plug-In . SVG Version: 6.00 Build 0)  -->
<svg version="1.1" id="Ebene_1" xmlns="http://www.w3.org/2000/svg" xmlns:xlink="http://www.w3.org/1999/xlink" x="0px" y="0px"
	 viewBox="0 0 255 255" style="enable-background:new 0 0 255 255;" xml:space="preserve">
<style type="text/css">
	.st0{fill:#50BBE7;}
	.st1{fill:#EDEDED;}
	.st2{fill:#3F4040;}
	.st3{fill:#FFFFFF;}
	.st4{fill:#010202;}
</style>
<g>
	<rect x="1.4" y="1.4" class="st0" width="126.1" height="126.1"/>
	<rect x="127.3" y="1.4" class="st1" width="126.1" height="126.1"/>
	<rect x="0" y="127.5" class="st1" width="253.3" height="126.1"/>
	<path class="st2" d="M151.3,108c7.2,6.5,55.4-22.2,62.5-34.3c3.4-5.8-0.6-14.3-7.2-21.1c7.5-5,14.1,10.6,20.4,7.3
		c2.9-1.5,4.7-6.2,3.3-9.1c-2.5-5.1-10.7-5.1-16.3-5.8c3.9-1,13.4-5,13.6-10.7c0.2-4.4-5.4-9.4-9.8-8.9c-5.8,0.7-7.9,8.9-9.8,14.3
		c-0.2-3.4-1-10.8-4.7-14c-4.9-4.3-10.9-0.2-11,5c-0.2,6.3,13.4,9.9,9.1,17.5c-7.2-5.6-15.8-8.6-21.2-5.4c-2.3,1.5-5,4.3-7.8,8
		c4.2,4.5,10.1,9.9,14.7,12.9c1,0.7,1.2,2,0.5,3c-0.7,1-2,1.2-3,0.6c-4.7-3.2-10.5-8.5-14.8-12.9c-2.1,3.2-4.3,6.8-6.4,10.6
		c4,4.1,9.2,8.7,13.3,11.5c1,0.7,1.2,2,0.5,3c-0.7,1-2,1.2-3,0.6c-4-2.8-8.9-7-12.9-11C153.2,85.5,147,104.2,151.3,108z"/>
	<polygon class="st3" points="128.9,126.1 128.9,1.4 126.1,1.4 126.1,126.1 1.4,126.1 1.4,128.9 253.6,128.9 253.6,126.1 	"/>
	<path class="st4" d="M255,255H0V0h255V255z M2.9,252.1h249.2V2.9H2.9V252.1z"/>
</g>
</svg>
